<svg width="1740" height="578" viewBox="0 0 1740 578" fill="none" xmlns="http://www.w3.org/2000/svg">
<g clip-path="url(#clip0_2_200)">
<g clip-path="url(#clip1_2_200)">
<path d="M0 377.359V200.641H34.2121L114.363 320.193C116.217 323.025 118.03 326.18 119.803 329.66C121.576 333.058 122.986 335.89 124.034 338.156H125.243C124.921 335.566 124.639 332.168 124.397 327.96C124.155 323.672 124.034 320.112 124.034 317.28V200.641H151.718V377.359H117.506L36.1464 256.594C34.2927 253.923 32.6406 251.294 31.1899 248.704C29.8198 246.115 28.6915 243.688 27.8049 241.422H26.4751C26.7975 244.011 27.0393 246.884 27.2005 250.04C27.4422 253.114 27.5631 256.068 27.5631 258.9V377.359H0Z" fill="white"/>
<path d="M172.995 377.359L243.112 199.792H275.631L346.111 377.359H312.745L265.114 249.918C263.744 246.358 262.495 242.919 261.366 239.602C260.238 236.284 259.271 233.007 258.465 229.77H257.135C256.329 233.088 255.362 236.405 254.234 239.723C253.186 242.96 251.977 246.358 250.607 249.918L202.371 377.359H172.995ZM204.548 335L213.252 311.575L303.678 311.697L312.503 335H204.548Z" fill="white"/>
<path d="M357.233 327.596V325.533H388.544V327.475C388.544 337.266 392.251 344.669 399.666 349.686C407.161 354.703 417.839 357.211 431.702 357.211C445.403 357.211 455.799 354.743 462.891 349.807C469.984 344.872 473.53 338.52 473.53 330.752C473.61 323.389 470.548 317.603 464.342 313.396C458.217 309.107 444.033 304.495 421.789 299.559C399.545 294.624 383.829 288.231 374.641 280.383C365.534 272.453 360.98 261.449 360.98 247.369C360.9 232.724 366.985 220.668 379.235 211.201C391.485 201.734 408.45 197 430.13 197C451.81 197 468.976 202.138 481.63 212.414C494.363 222.69 500.73 235.151 500.73 249.797V251.739H469.782V249.797C469.621 241.301 466.276 234.383 459.748 229.042C453.301 223.621 443.388 220.91 430.009 220.91C416.711 220.91 407 223.135 400.874 227.586C394.749 231.955 391.687 237.498 391.687 244.214C391.687 251.496 394.709 257.12 400.754 261.084C406.879 265.049 419.774 269.216 439.439 273.586C461.441 278.522 477.761 285.197 488.399 293.612C499.038 302.027 504.357 314.003 504.357 329.538C504.357 344.831 497.789 357.252 484.652 366.799C471.596 376.266 453.865 381 431.46 381C409.055 381 391.042 376.266 377.422 366.799C363.882 357.332 357.152 344.265 357.233 327.596Z" fill="white"/>
<path d="M518.38 224.309V200.641H673V224.309H611.225V377.359H580.277V224.309H518.38Z" fill="white"/>
</g>
<g clip-path="url(#clip2_2_200)">
<path d="M666 177L736.264 0H768.852L839.48 177H806.044L758.313 49.9665C756.94 46.4176 755.688 42.9897 754.557 39.6828C753.427 36.3759 752.457 33.1094 751.65 29.8831H750.317C749.51 33.19 748.54 36.4969 747.41 39.8038C746.36 43.0301 745.148 46.4176 743.775 49.9665L695.438 177H666ZM697.619 134.776L706.341 111.427L796.958 111.548L805.802 134.776H697.619Z" fill="white"/>
<path d="M861.408 177V0.84689H928.522C950.894 0.84689 968.137 5.68626 980.251 15.365C992.446 25.0437 998.544 38.231 998.544 54.9269C998.544 71.6227 992.446 84.931 980.251 94.8517C968.056 104.772 950.813 109.733 928.522 109.733H892.542V177H861.408ZM892.542 86.5038H928.28C942.736 86.5038 952.872 83.5195 958.687 77.5509C964.502 71.5017 967.41 64.0007 967.41 55.0478C967.41 45.853 964.381 38.3923 958.324 32.6658C952.267 26.9392 942.252 24.0759 928.28 24.0759H892.542V86.5038ZM971.044 177L925.615 96.1825L959.414 95.2146L1006.42 177H971.044Z" fill="white"/>
<path d="M1006.06 24.4388V0.84689H1161V24.4388H1099.09V177H1068.08V24.4388H1006.06Z" fill="white"/>
</g>
<g clip-path="url(#clip3_2_200)">
<path d="M1218.84 578L1172 401H1203.71L1235.42 529.727C1236.15 532.47 1236.75 535.252 1237.24 538.075C1237.72 540.898 1238.16 543.681 1238.57 546.423H1239.9C1240.22 543.681 1240.58 540.898 1240.99 538.075C1241.39 535.252 1241.96 532.47 1242.68 529.727L1275.36 401H1310.94L1344.71 529.485C1345.44 532.308 1346 535.131 1346.41 537.954C1346.81 540.777 1347.17 543.56 1347.5 546.302H1348.95C1349.27 543.479 1349.63 540.697 1350.04 537.954C1350.44 535.131 1350.96 532.308 1351.61 529.485L1382.72 401H1410.79L1363.71 578H1329.22L1295.57 450.604C1294.85 447.781 1294.16 444.917 1293.52 442.014C1292.95 439.029 1292.51 436.166 1292.18 433.424H1290.73C1290.33 436.166 1289.84 438.989 1289.28 441.893C1288.8 444.716 1288.15 447.539 1287.34 450.362L1253.33 577.758L1218.84 578Z" fill="white"/>
<path d="M1439 577.153V401H1566.44V424.471H1470.1V474.679H1554.22V498.029H1470.1V553.803H1567.77V577.153H1439Z" fill="white"/>
<path d="M1599.48 577.153V401H1667.62C1688.6 401 1705.02 404.71 1716.88 412.131C1728.82 419.551 1734.8 431.286 1734.8 447.337C1734.8 457.096 1732.17 465.081 1726.93 471.292C1721.76 477.502 1715.31 481.777 1707.56 484.116V484.6C1717.08 487.02 1724.87 491.779 1730.92 498.876C1736.97 505.974 1740 515.249 1740 526.703C1740 542.834 1733.75 555.295 1721.24 564.087C1708.73 572.798 1692.19 577.153 1671.62 577.153H1599.48ZM1630.22 554.771H1671.13C1684.29 554.771 1693.89 552.19 1699.94 547.028C1706.07 541.785 1709.14 534.607 1709.14 525.493C1709.14 516.379 1706.07 509.241 1699.94 504.079C1693.81 498.917 1684.24 496.336 1671.25 496.336H1630.22V554.771ZM1630.22 474.679H1667.26C1680.25 474.679 1689.61 472.461 1695.34 468.025C1701.07 463.509 1703.93 457.096 1703.93 448.789C1703.93 440.562 1701.07 434.271 1695.34 429.915C1689.61 425.56 1680.25 423.382 1667.26 423.382H1630.22V474.679Z" fill="white"/>
</g>
</g>
<defs>
<clipPath id="clip0_2_200">
<rect width="1740" height="578" fill="white"/>
</clipPath>
<clipPath id="clip1_2_200">
<rect width="673" height="184" fill="white" transform="translate(0 197)"/>
</clipPath>
<clipPath id="clip2_2_200">
<rect width="495" height="177" fill="white" transform="translate(666)"/>
</clipPath>
<clipPath id="clip3_2_200">
<rect width="568" height="177" fill="white" transform="translate(1172 401)"/>
</clipPath>
</defs>
</svg>
